<?xml version="1.0" encoding="utf-8"?>
<!-- Generator: Adobe Illustrator 16.0.0, SVG Export Plug-In . SVG Version: 6.00 Build 0)  -->
<!DOCTYPE svg PUBLIC "-//W3C//DTD SVG 1.1//EN" "http://www.w3.org/Graphics/SVG/1.1/DTD/svg11.dtd">
<svg version="1.1" id="图层_1" xmlns="http://www.w3.org/2000/svg" xmlns:xlink="http://www.w3.org/1999/xlink" x="0px" y="0px"
	 width="34.643px" height="37.191px" viewBox="17.322 18.596 34.643 37.191" enable-background="new 17.322 18.596 34.643 37.191"
	 xml:space="preserve">
<polyline fill="#EECCC2" points="32.56,55.787 48.394,55.787 50.977,43.322 49.56,34.552 46.31,34.552 43.958,32.79 41.134,33.049 
	39.434,31.414 36.977,32.072 37.227,21.104 34.627,19.596 32.56,21.656 32.56,37.691 30.021,38.445 27.227,44.727 29.124,50.072 "/>
<rect x="24.107" y="19.596" fill="#DD5352" width="2" height="14.325"/>
<path fill="#DD5352" d="M28.124,23.611c-0.256,0-0.511-0.098-0.707-0.293l-2.308-2.309L22.8,23.318
	c-0.391,0.391-1.023,0.391-1.414,0s-0.391-1.023,0-1.414l3.016-3.016c0.39-0.391,1.023-0.391,1.414,0l3.016,3.016
	c0.391,0.391,0.391,1.023,0,1.414C28.635,23.514,28.379,23.611,28.124,23.611z"/>
<rect x="20.337" y="25.627" fill="#DD5352" width="2" height="14.326"/>
<path fill="#DD5352" d="M21.337,40.953L21.337,40.953c-0.265,0-0.519-0.105-0.707-0.293l-3.016-3.016
	c-0.391-0.391-0.391-1.024,0-1.414c0.391-0.391,1.023-0.391,1.414,0l2.308,2.309l2.31-2.309c0.391-0.391,1.023-0.391,1.414,0
	c0.391,0.39,0.391,1.023,0,1.414l-3.017,3.016C21.856,40.848,21.603,40.953,21.337,40.953z"/>
<path fill="#303232" d="M42.696,38.445h-2v-4.524c0-0.696-0.566-1.262-1.263-1.262c-0.695,0-1.262,0.566-1.262,1.262v0.754h-2
	v-0.754c0-1.799,1.463-3.262,3.262-3.262s3.263,1.464,3.263,3.262V38.445z"/>
<path fill="#303232" d="M47.219,39.199h-2v-4.524c0-0.696-0.566-1.262-1.262-1.262s-1.262,0.566-1.262,1.262v3.77h-2v-3.77
	c0-1.798,1.463-3.262,3.262-3.262s3.262,1.463,3.262,3.262V39.199z"/>
<path fill="#303232" d="M33.647,43.723h-2V21.857c0-1.798,1.463-3.262,3.262-3.262s3.262,1.463,3.262,3.262v16.588h-2V21.857
	c0-0.696-0.566-1.262-1.262-1.262c-0.695,0-1.262,0.566-1.262,1.262L33.647,43.723L33.647,43.723z"/>
<path fill="#303232" d="M33.647,55.787h-2c0-0.572-0.906-1.811-1.707-2.904c-1.693-2.314-4.013-5.484-3.465-9.061l0.022-0.105
	c0.828-3.096,1.592-5.329,2.627-6.173c0.931-0.758,2.106-1.07,3.604-0.944l-0.164,1.994c-0.96-0.078-1.659,0.08-2.177,0.5
	c-0.492,0.402-1.146,2.111-1.944,5.084c-0.392,2.739,1.549,5.391,3.11,7.523C32.724,53.299,33.647,54.561,33.647,55.787z"/>
<path fill="#303232" d="M49.481,55.787h-2c0-0.598,0.248-1.432,0.624-2.694c0.953-3.208,2.729-9.181,1.353-15.932
	c-0.292-1.429-0.77-1.466-1.055-1.489c-0.841-0.073-1.519,0.503-1.524,0.51l-1.325-1.499c0.131-0.116,1.304-1.137,3.006-1.005
	c1.502,0.117,2.464,1.155,2.857,3.083c1.478,7.242-0.391,13.526-1.395,16.902C49.755,54.557,49.481,55.48,49.481,55.787z"/>
</svg>
