<?xml version="1.0" encoding="utf-8"?>
<!-- Generator: Adobe Illustrator 16.0.0, SVG Export Plug-In . SVG Version: 6.00 Build 0)  -->
<!DOCTYPE svg PUBLIC "-//W3C//DTD SVG 1.1//EN" "http://www.w3.org/Graphics/SVG/1.1/DTD/svg11.dtd">
<svg version="1.1" id="图层_1" xmlns="http://www.w3.org/2000/svg" xmlns:xlink="http://www.w3.org/1999/xlink" x="0px" y="0px"
	 width="30.12px" height="37.944px" viewBox="15.059 18.973 30.12 37.944" enable-background="new 15.059 18.973 30.12 37.944"
	 xml:space="preserve">
<polyline fill="#EECCC2" points="25.929,56.918 41.972,56.918 44.345,44.148 42.595,36.065 39.428,36.065 37.172,33.481 
	34.845,34.299 30.368,32.722 30.368,22.648 28.123,20.315 25.929,22.648 25.929,37.547 20.679,39.577 20.075,47.565 "/>
<rect x="18.075" y="19.972" fill="#DD5352" width="2" height="14.326"/>
<path fill="#DD5352" d="M16.059,23.988c-0.256,0-0.511-0.098-0.707-0.293c-0.39-0.391-0.39-1.023,0-1.414l3.016-3.016
	c0.391-0.39,1.023-0.39,1.414,0l3.017,3.016c0.39,0.391,0.39,1.023,0,1.414c-0.391,0.391-1.023,0.391-1.414,0l-2.31-2.309
	l-2.309,2.309C16.571,23.89,16.316,23.988,16.059,23.988z"/>
<path fill="#303232" d="M35.909,39.577h-2v-4.524c0-0.696-0.566-1.263-1.262-1.263c-0.696,0-1.262,0.567-1.262,1.263v0.754h-2
	v-0.754c0-1.799,1.464-3.263,3.262-3.263c1.799,0,3.262,1.464,3.262,3.263V39.577z"/>
<path fill="#303232" d="M40.432,40.331h-2v-4.524c0-0.696-0.566-1.262-1.261-1.262c-0.695,0-1.262,0.566-1.262,1.262v3.771h-2
	v-3.771c0-1.799,1.463-3.262,3.262-3.262c1.798,0,3.261,1.464,3.261,3.262V40.331z"/>
<path fill="#303232" d="M26.862,44.854h-2V22.988c0-1.798,1.463-3.262,3.261-3.262c1.799,0,3.262,1.464,3.262,3.262v16.589h-2
	V22.988c0-0.695-0.566-1.262-1.262-1.262c-0.695,0-1.261,0.566-1.261,1.262V44.854z"/>
<path fill="#303232" d="M26.862,56.918h-2c0-0.638-0.834-1.763-1.717-2.952c-1.508-2.033-3.573-4.816-3.933-8.383
	c-0.092-0.916-0.125-2.267-0.098-4.016c0.03-1.988,1.392-3.741,3.311-4.261l3.302-0.895l0.523,1.931l-3.302,0.895
	c-1.063,0.288-1.817,1.259-1.834,2.361c-0.025,1.648,0.005,2.957,0.088,3.784c0.305,3.018,2.104,5.442,3.55,7.392
	C25.929,54.363,26.862,55.618,26.862,56.918z"/>
<path fill="#303232" d="M42.695,56.918h-2c0-0.597,0.248-1.431,0.623-2.693c0.954-3.208,2.73-9.181,1.353-15.932
	c-0.292-1.431-0.769-1.468-1.054-1.489c-0.84-0.073-1.513,0.497-1.519,0.503l-1.332-1.492c0.131-0.116,1.342-1.134,3.006-1.005
	c1.504,0.117,2.465,1.154,2.858,3.082c1.479,7.242-0.391,13.527-1.395,16.902C42.969,55.688,42.695,56.612,42.695,56.918z"/>
</svg>
