<?xml version="1.0" encoding="utf-8"?>
<!-- Generator: Adobe Illustrator 16.0.0, SVG Export Plug-In . SVG Version: 6.00 Build 0)  -->
<!DOCTYPE svg PUBLIC "-//W3C//DTD SVG 1.1//EN" "http://www.w3.org/Graphics/SVG/1.1/DTD/svg11.dtd">
<svg version="1.1" id="图层_1" xmlns="http://www.w3.org/2000/svg" xmlns:xlink="http://www.w3.org/1999/xlink" x="0px" y="0px"
	 width="35.865px" height="45.404px" viewBox="0 0 35.865 45.404" enable-background="new 0 0 35.865 45.404" xml:space="preserve">
<polyline fill="#E8C8BE" points="14.164,42.681 26.006,45.155 34.442,34.177 35.736,27.203 33.483,25.988 31.035,25.988 
	30.983,23.233 26.942,23.233 25.858,20.738 22.674,20.738 26.233,11.113 24.494,8.595 22.358,8.89 15.206,28.503 12.614,27.363 
	10.53,23.738 8.358,22.537 7.265,23.988 8.483,34.238 12.614,38.488 "/>
<path fill="#303232" d="M27.382,26.73l-1.928-0.532l0.79-2.864c0.09-0.324,0.048-0.665-0.118-0.958
	c-0.167-0.293-0.437-0.504-0.762-0.594c-0.325-0.091-0.665-0.048-0.958,0.118c-0.294,0.167-0.504,0.438-0.594,0.762l-1.22,3.658
	l-1.897-0.633L21.9,22.08c0.216-0.789,0.761-1.488,1.52-1.919c0.758-0.429,1.64-0.537,2.478-0.307
	c1.734,0.479,2.755,2.278,2.275,4.013L27.382,26.73z"/>
<path fill="#303232" d="M31.444,29.015l-1.928-0.531l0.889-3.219c0.09-0.326,0.048-0.666-0.118-0.959
	c-0.167-0.293-0.437-0.504-0.762-0.594c-0.325-0.089-0.665-0.047-0.959,0.119c-0.293,0.166-0.504,0.437-0.594,0.762L27.17,27.5
	l-1.928-0.531l0.802-2.908c0.231-0.84,0.776-1.539,1.535-1.969c0.758-0.43,1.639-0.538,2.478-0.307
	c0.84,0.232,1.539,0.777,1.969,1.535s0.539,1.637,0.307,2.477L31.444,29.015z"/>
<path fill="#303232" d="M26.904,45.404l-1.927-0.535c0.191-0.697,0.854-1.486,1.949-2.791c2.31-2.755,6.177-7.365,6.908-13.343
	c0.168-1.375-0.388-1.576-0.625-1.661c-0.794-0.287-1.59,0.076-1.598,0.08l-0.887-1.792c0.156-0.077,1.577-0.743,3.165-0.169
	c0.854,0.309,2.243,1.212,1.929,3.785c-0.803,6.566-4.908,11.461-7.361,14.385C27.774,44.177,27,45.101,26.904,45.404z"/>
<path fill="#C74F4E" d="M11.531,6.609c-0.291,0-0.579-0.126-0.776-0.369c-0.349-0.429-0.284-1.059,0.145-1.407l5.265-4.281
	c0.43-0.348,1.059-0.284,1.407,0.145c0.349,0.429,0.284,1.059-0.146,1.407l-5.266,4.281C11.975,6.536,11.752,6.609,11.531,6.609z"/>
<path fill="#C74F4E" d="M16.469,5.511c-0.035,0-0.069-0.001-0.104-0.005c-0.55-0.057-0.949-0.548-0.893-1.097l0.226-2.188
	l-2.188-0.226c-0.55-0.057-0.948-0.548-0.892-1.097c0.056-0.549,0.547-0.953,1.097-0.892l3.183,0.328
	c0.549,0.057,0.948,0.548,0.892,1.097l-0.328,3.182C17.41,5.128,16.975,5.511,16.469,5.511z"/>
<path fill="#C74F4E" d="M1,15.171c-0.291,0-0.579-0.126-0.776-0.369c-0.349-0.429-0.284-1.059,0.145-1.407l5.265-4.281
	c0.429-0.349,1.059-0.284,1.407,0.145c0.349,0.429,0.284,1.059-0.145,1.407l-5.265,4.281C1.445,15.098,1.222,15.171,1,15.171z"/>
<path fill="#C74F4E" d="M4.183,15.499c-0.034,0-0.069-0.001-0.104-0.005l-3.182-0.328c-0.549-0.057-0.949-0.548-0.892-1.097
	l0.328-3.182C0.39,10.337,0.881,9.93,1.431,9.994c0.549,0.057,0.949,0.548,0.892,1.097l-0.226,2.188l2.188,0.226
	c0.549,0.057,0.949,0.548,0.892,1.097C5.124,15.116,4.689,15.499,4.183,15.499z"/>
<path fill="#C74F4E" d="M25.12,14.696l-0.6-1.908l0.955-0.299c1.067-0.335,1.932-1.07,2.433-2.069
	c0.49-0.977,0.57-2.086,0.226-3.124c-0.344-1.037-1.071-1.878-2.049-2.368c-2.016-1.011-4.479-0.194-5.49,1.822
	c-0.777,1.548-0.492,3.426,0.708,4.673l0.694,0.72l-1.441,1.387l-0.693-0.721c-1.787-1.856-2.212-4.652-1.057-6.957
	c1.508-3.002,5.176-4.219,8.176-2.714c3.003,1.506,4.221,5.174,2.715,8.176c-0.747,1.488-2.033,2.583-3.623,3.081L25.12,14.696z"/>
<path fill="#C74F4E" d="M7.217,28.503c-2.582-0.092-4.837-1.811-5.611-4.277c-1.008-3.213,0.786-6.646,3.999-7.654
	c1.556-0.489,3.21-0.342,4.656,0.413c1.446,0.755,2.511,2.028,3,3.585c0.58,1.846,0.266,3.809-0.861,5.385l-1.627-1.164
	c0.758-1.061,0.97-2.381,0.58-3.622c-0.329-1.047-1.045-1.903-2.017-2.411c-0.972-0.508-2.083-0.606-3.131-0.277
	c-1.047,0.328-1.903,1.045-2.411,2.017c-0.508,0.973-0.606,2.085-0.278,3.132c0.521,1.658,2.037,2.814,3.774,2.876L7.217,28.503z"/>
<path fill="#303232" d="M15.086,42.937l-1.928-0.533c0.272-0.988-0.536-1.891-1.989-3.4c-1.754-1.822-4.157-4.316-4.667-8.451
	c-0.115-0.931-0.234-1.768-0.34-2.515c-0.378-2.661-0.587-4.126,0.014-5.127c0.453-0.754,1.286-1.243,2.228-1.31
	c1.113-0.076,2.233,0.432,2.993,1.368c0.452,0.557,0.68,1.124,0.922,1.726c0.133,0.332,0.277,0.695,0.484,1.1
	c0.545,1.063,1.305,1.432,1.824,1.558l5.924-17.384c0.215-0.784,0.76-1.483,1.518-1.913c0.757-0.43,1.636-0.539,2.477-0.307
	c0.84,0.232,1.54,0.777,1.97,1.535c0.431,0.758,0.539,1.638,0.308,2.478l-4.218,14.521l-1.921-0.558l4.214-14.509
	c0.087-0.313,0.044-0.653-0.122-0.946s-0.438-0.504-0.762-0.594c-0.326-0.089-0.666-0.048-0.959,0.119s-0.504,0.437-0.594,0.762
	l-6.395,18.774L15.434,29.4c-0.115,0.011-2.888,0.279-4.411-2.693c-0.238-0.467-0.407-0.883-0.561-1.266
	c-0.208-0.516-0.357-0.889-0.619-1.211c-0.503-0.619-1.081-0.657-1.299-0.635c-0.292,0.021-0.537,0.15-0.654,0.346
	c-0.236,0.392,0.012,2.132,0.251,3.814c0.108,0.758,0.229,1.607,0.346,2.551c0.428,3.474,2.391,5.512,4.122,7.311
	C14.186,39.253,15.676,40.8,15.086,42.937z"/>
</svg>
